<svg xmlns="http://www.w3.org/2000/svg" xmlns:xlink="http://www.w3.org/1999/xlink" viewBox="0 0 100 100"><defs><style>.a{fill:none;}.b{clip-path:url(#a);}.c{fill:#051d30;}.d{fill:#e6e6e6;}</style><clipPath id="a"><path class="a" d="M-1710.84,323.65c-6.12,0-11.68-5-11.68-11.13s5-11.12,11.68-11.12,11.68,5,11.68,11.12-5.56,11.13-11.68,11.13ZM-1567.31,263c-1.12-8.9-6.68-16.13-13.91-21.69l-2.78-2.23-2.23,2.78c-4.45,5-6.12,13.91-5.56,20.59a29.76,29.76,0,0,0,5,13.9c-2.23,1.12-5,2.23-7.24,3.34a46.79,46.79,0,0,1-15,2.23h-144.08l-.56,3.33a62.62,62.62,0,0,0,5,31.71l2.22,3.9v.55c13.36,22.26,37.28,32.27,63.42,32.27,50.07,0,91.24-21.7,110.71-68.43,12.79.56,25.59-2.78,31.71-15l1.67-2.78-2.78-1.67c-7.24-4.45-17.25-5-25.59-2.78Zm-71.77-8.9h-21.69v21.7h21.69Zm0-27.26h-21.69v21.7h21.69Zm0-27.81h-21.69v21.69h21.69Zm26.7,55.07h-21.69v21.7h21.69Zm-80.66,0h-21.7v21.7h21.7v-21.7Zm27.26,0h-21.7v21.7h21.7Zm-54,0h-21.7v21.7h21.7v-21.7Zm54-27.26h-21.7v21.7h21.7Zm-27.26,0h-21.7v21.7h21.7v-21.7Z"/></clipPath></defs><title>icon-go</title><g class="b"><path class="c" d="M-2030.72,73.31H5061.12V915.56H-2030.72Z"/></g><path class="d" d="M45.42,35.29a10.71,10.71,0,0,0-21.42,0c0,.33,0,.66.05,1A3.73,3.73,0,0,1,25.9,34a3.79,3.79,0,0,1,1.74-.43,3.74,3.74,0,0,1,1.75,7.05,3.66,3.66,0,0,1-1.74.44,3.74,3.74,0,0,1-2.51-1,10.7,10.7,0,0,0,20.28-4.77Z"/><path class="d" d="M65.45,23.58A10.73,10.73,0,0,0,54.74,34.29a11.34,11.34,0,0,0,.11,1.44,3.68,3.68,0,0,1,3-3.6,3.57,3.57,0,0,1,.65-.06,3.68,3.68,0,1,1-3.38,5.13,10.71,10.71,0,1,0,10.3-13.62Z"/><path class="d" d="M95.54,27.14A10.59,10.59,0,0,0,85,16.56a10.48,10.48,0,0,0-7.34,3,26.87,26.87,0,0,0-8-3.91,64.91,64.91,0,0,0-35.9.07,33.62,33.62,0,0,0-11.63,5.62,10.69,10.69,0,0,0-7-2.62A10.46,10.46,0,0,0,4.46,29a10.34,10.34,0,0,0,7.31,9.79,34.33,34.33,0,0,0-.85,7.55A166,166,0,0,0,12,64.17c.74,7.29,1.37,13.59-.1,21.39a1.1,1.1,0,0,0,.88,1.29l.2,0a1.1,1.1,0,0,0,1.08-.9c1.53-8.12.88-14.56.13-22a162.78,162.78,0,0,1-1.08-17.61,31.29,31.29,0,0,1,9.9-23c2.16-2,6.69-4.28,11.27-5.58A62.81,62.81,0,0,1,69,17.74a24.48,24.48,0,0,1,7.42,3.62A30.16,30.16,0,0,1,87.8,45.1c0,.08.42,7.74.13,18.24L87.85,66c-.26,9.12-.43,15.15.2,19.89a1.1,1.1,0,1,0,2.18-.29c-.6-4.57-.43-10.52-.18-19.53l.08-2.69C90.43,52.81,90,45.06,90,45a32.82,32.82,0,0,0-1-8.13A10.57,10.57,0,0,0,95.54,27.14Zm-78.35-.41a2.62,2.62,0,0,0-1.7-.63,2.68,2.68,0,0,0-2.68,2.68,2.65,2.65,0,0,0,1.65,2.46,33,33,0,0,0-2.13,5.41A8.13,8.13,0,0,1,6.66,29,8.25,8.25,0,0,1,15,20.9a8.44,8.44,0,0,1,5.41,1.94A34.27,34.27,0,0,0,17.19,26.73Zm71.15,8.06a31.66,31.66,0,0,0-2.52-5.71A2.77,2.77,0,0,0,86.75,27a2.79,2.79,0,0,0-4.07-2.51A32,32,0,0,0,79.31,21a8.37,8.37,0,1,1,9,13.82Z"/><path class="d" d="M45.2,58.88v2.63a3.22,3.22,0,0,0,3.22,3.21,1.46,1.46,0,0,0,1.46-1.45V57.8l-3.31.88A6.38,6.38,0,0,1,45.2,58.88Z"/><path class="d" d="M51.31,57.84v4.51A1.6,1.6,0,0,0,52.9,64h.59A2.49,2.49,0,0,0,56,61.45V58.89a6.15,6.15,0,0,1-1.54-.21Z"/><path class="d" d="M45.19,47.6a2.51,2.51,0,0,0,1.37,1.84l.09,0a8.62,8.62,0,0,0,7.63,0l.09,0A2.51,2.51,0,0,0,55.76,47,2.48,2.48,0,0,0,55,45.42a3.74,3.74,0,0,0-1.14-.68,6.81,6.81,0,0,0-.76-.26,8.46,8.46,0,0,0-2.39-.33h-.57a8.36,8.36,0,0,0-2.39.33,6.81,6.81,0,0,0-.76.26l-.34.15a4,4,0,0,0-.58.34,1.37,1.37,0,0,0-.22.19h0a2.48,2.48,0,0,0-.63,1A2.64,2.64,0,0,0,45.19,47.6Z"/><path class="d" d="M56.74,49.54A4.27,4.27,0,0,1,55.12,51L55,51a10.27,10.27,0,0,1-9.13,0l-.09,0a4.19,4.19,0,0,1-1.61-1.4,4.48,4.48,0,0,0-3,4.06,3.14,3.14,0,0,0,1.27,2.46,4,4,0,0,0,2.47.82,4.24,4.24,0,0,0,1.11-.15l3.87-1a2.32,2.32,0,0,1,1.17,0l3.87,1a4.12,4.12,0,0,0,3.58-.67,3.14,3.14,0,0,0,1.27-2.46A4.48,4.48,0,0,0,56.74,49.54Z"/></svg>