<svg xmlns="http://www.w3.org/2000/svg" viewBox="0 0 24 24"><defs><style>.a{fill:#98a2b8;}</style></defs><path class="a" d="M16.71,0H15.46a7.29,7.29,0,0,0,0,14.57h1.25a7.78,7.78,0,0,0,1.8-.22l1.82,1.81a.57.57,0,0,0,.82,0,.58.58,0,0,0,.17-.41V12.92a7.22,7.22,0,0,0,1.89-2.33A7.29,7.29,0,0,0,16.71,0Zm.12,12a.86.86,0,1,1-1.21-1.21.88.88,0,0,1,1.21,0h0A.85.85,0,0,1,16.83,12Zm.08-4.17V9.07h0a.69.69,0,0,1-1.37,0V7.68a1.2,1.2,0,0,1,.95-1.18,1.19,1.19,0,0,0-.27-2.36A1.19,1.19,0,0,0,15,5.33a.69.69,0,1,1-1.37,0,1.09,1.09,0,0,1,0-.18,2.57,2.57,0,0,1,2.74-2.38h0a2.56,2.56,0,0,1,.5,5Z"/><path class="a" d="M16.29,15.4h0a.85.85,0,0,0-.84.84V18a2.14,2.14,0,0,1-2.13,2.14H9.15a.83.83,0,0,0-.83.83v.16l-.56-.56A.86.86,0,0,0,7,20.15H3.81A2.15,2.15,0,0,1,1.67,18V12A2.16,2.16,0,0,1,3.81,9.9H6.45a.84.84,0,1,0,0-1.67H3.81A3.82,3.82,0,0,0,0,12v6a3.82,3.82,0,0,0,3.81,3.81H6.63l1.93,1.93a.81.81,0,0,0,.59.25.84.84,0,0,0,.84-.84V21.82h3.33A3.82,3.82,0,0,0,17.13,18V16.24A.85.85,0,0,0,16.29,15.4Z"/><path class="a" d="M3.67,16.92h0a.84.84,0,0,0,.84.83h7a.84.84,0,1,0,0-1.67h-7A.84.84,0,0,0,3.67,16.92Z"/><path class="a" d="M3.67,13.75a.84.84,0,0,0,.84.83H7.89a.84.84,0,0,0,0-1.67H4.51A.84.84,0,0,0,3.67,13.75Z"/></svg>
