<svg xmlns="http://www.w3.org/2000/svg" xmlns:xlink="http://www.w3.org/1999/xlink" viewBox="0 0 100 100"><defs><style>.a{fill:none;}.b{clip-path:url(#a);}.c{fill:#051d30;}.d{fill:#e6e6e6;}</style><clipPath id="a"><path class="a" d="M-2444.58,323.65c-6.12,0-11.69-5-11.69-11.13s5-11.12,11.69-11.12,11.68,5,11.68,11.12-5.57,11.13-11.68,11.13ZM-2301.06,263c-1.11-8.9-6.67-16.13-13.9-21.69l-2.79-2.23-2.22,2.78c-4.45,5-6.12,13.91-5.56,20.59a29.86,29.86,0,0,0,5,13.9c-2.22,1.12-5,2.23-7.23,3.34a46.83,46.83,0,0,1-15,2.23h-144.08l-.56,3.33a62.62,62.62,0,0,0,5,31.71l2.22,3.9v.55c13.35,22.26,37.27,32.27,63.42,32.27,50.07,0,91.24-21.7,110.71-68.43,12.79.56,25.59-2.78,31.71-15l1.67-2.78-2.79-1.67c-7.23-4.45-17.24-5-25.59-2.78Zm-71.76-8.9h-21.7v21.7h21.7Zm0-27.26h-21.7v21.7h21.7Zm0-27.81h-21.7v21.69h21.7Zm26.7,55.07h-21.69v21.7h21.69Zm-80.66,0h-21.7v21.7h21.7v-21.7Zm27.26,0h-21.7v21.7h21.7Zm-54,0h-21.69v21.7h21.69v-21.7Zm54-27.26h-21.7v21.7h21.7Zm-27.26,0h-21.7v21.7h21.7v-21.7Z"/></clipPath></defs><title>icon-ruby</title><g class="b"><path class="c" d="M-2764.46,73.31H4327.37V915.56H-2764.46Z"/></g><path class="d" d="M95.21,39.94,80.78,18.06a1.09,1.09,0,0,0-.91-.49H31.46a1.09,1.09,0,1,0,0,2.18H48.05l-13,21-14-22.69a1.08,1.08,0,0,0-.91-.52,1.12,1.12,0,0,0-.93.49L4.79,39.94a4.82,4.82,0,0,0,.6,6L49.23,90.11l.1.09,0,0a1.3,1.3,0,0,0,.26.14h.06a1.06,1.06,0,0,0,.31.05h0a1,1,0,0,0,.3-.05h.07a1.3,1.3,0,0,0,.26-.14l0,0,.1-.09L94.61,46A4.82,4.82,0,0,0,95.21,39.94Zm-30.28.84-13-21h26ZM63.11,42H36.89L50,20.73ZM79.9,20.68,93.39,41.14a2.65,2.65,0,0,1,.36.83h-27Zm-59.8,0L33.24,42h-27a2.65,2.65,0,0,1,.36-.83ZM6.7,44.15H34.34l13.23,41.2L6.94,44.44A2.17,2.17,0,0,1,6.7,44.15ZM52.45,85.33l11.32-35a1.09,1.09,0,1,0-2.07-.68L50,85.79,36.63,44.15H93.3a2.17,2.17,0,0,1-.24.29Z"/></svg>