<svg xmlns="http://www.w3.org/2000/svg" xmlns:xlink="http://www.w3.org/1999/xlink" viewBox="0 0 100 100"><defs><style>.a{fill:none;}.b{clip-path:url(#a);}.c{fill:#051d30;}.d{fill:#e6e6e6;}</style><clipPath id="a"><path class="a" d="M-2240.17,323.65c-6.12,0-11.68-5-11.68-11.13s5-11.12,11.68-11.12,11.69,5,11.69,11.12-5.57,11.13-11.69,11.13ZM-2096.64,263c-1.11-8.9-6.67-16.13-13.91-21.69l-2.78-2.23-2.22,2.78c-4.45,5-6.12,13.91-5.57,20.59a30,30,0,0,0,5,13.9c-2.22,1.12-5,2.23-7.23,3.34a46.83,46.83,0,0,1-15,2.23h-144.09l-.55,3.33a62.61,62.61,0,0,0,5,31.71l2.23,3.9v.55c13.35,22.26,37.27,32.27,63.42,32.27,50.07,0,91.23-21.7,110.71-68.43,12.79.56,25.59-2.78,31.7-15l1.67-2.78-2.78-1.67c-7.23-4.45-17.24-5-25.59-2.78Zm-71.76-8.9h-21.7v21.7h21.7Zm0-27.26h-21.7v21.7h21.7Zm0-27.81h-21.7v21.69h21.7Zm26.7,55.07h-21.7v21.7h21.7Zm-80.66,0h-21.7v21.7h21.7v-21.7Zm27.26,0h-21.7v21.7h21.7Zm-54,0h-21.69v21.7h21.69v-21.7Zm54-27.26h-21.7v21.7h21.7Zm-27.26,0h-21.7v21.7h21.7v-21.7Z"/></clipPath></defs><title>icon-docker_1</title><g class="b"><path class="c" d="M-2560,73.31H4531.79V915.56H-2560Z"/></g><path class="d" d="M41.62,92.91h-7a30,30,0,0,1-30-30V54.56H5.66s55.5,0,63.07,0h5.34a3.48,3.48,0,0,0,3.48-3.48V40.71h1a8.93,8.93,0,0,1,8.9,8.77l0,1.83h1.74c4.87,0,8.14,3.4,8.14,8.46v1.06L87,60.79c-6.07.05-7.14.65-10.68,9.26-.6,1.45-1.9,4-2.6,5.36C68.56,85.55,55,92.91,41.62,92.91ZM6.71,56.67v6.24A27.93,27.93,0,0,0,34.6,90.8h7c12.47,0,25.48-7,30.26-16.35.63-1.25,2-3.84,2.52-5.21,3.79-9.19,5.66-10.4,11.89-10.54v0h2.22l6.71,0a5.67,5.67,0,0,0-6-5.28H85.42l0-3.92a6.83,6.83,0,0,0-5.73-6.61v8.19a5.6,5.6,0,0,1-5.59,5.59H6.71Z"/><rect class="d" x="27.63" y="37.15" width="9.44" height="9.44" rx="1.18"/><rect class="d" x="42.83" y="37.15" width="9.44" height="9.44" rx="1.18"/><rect class="d" x="12.42" y="37.15" width="9.44" height="9.44" rx="1.18"/><rect class="d" x="27.91" y="22.12" width="9.44" height="9.44" rx="1.18"/><rect class="d" x="58.04" y="37.15" width="9.44" height="9.44" rx="1.18"/><rect class="d" x="42.95" y="22.12" width="9.44" height="9.44" rx="1.18"/><rect class="d" x="42.95" y="7.09" width="9.44" height="9.44" rx="1.18"/><circle class="d" cx="33.28" cy="72.9" r="2.3"/></svg>