<svg xmlns="http://www.w3.org/2000/svg" viewBox="0 0 90 90"><defs><style>.a,.b{fill:#fff;}.b,.c{opacity:0.5;}</style></defs><title>icon-docker-fill</title><path class="a" d="M78.71,49.39H76.49l0-2.3A7.18,7.18,0,0,0,69.32,40h-.24V48.5a3.76,3.76,0,0,1-3.75,3.75H4.81v6.67A25.77,25.77,0,0,0,30.55,84.66h9.32a27.16,27.16,0,0,0,24.57-15c.61-1.2,1.75-3.43,2.27-4.68,3.28-8,4.54-8.54,10-8.58l8.44,0v-.24C85.19,52.11,82.59,49.39,78.71,49.39ZM26.92,67.72a2.46,2.46,0,0,1,4.92,0,2.46,2.46,0,0,1-4.92,0Z"/><rect class="a" x="22.02" y="37" width="11.87" height="11.87" rx="1.28"/><rect class="a" x="6.31" y="37" width="11.87" height="11.87" rx="1.28"/><rect class="a" x="53.44" y="37" width="11.87" height="11.87" rx="1.28"/><rect class="a" x="37.73" y="21.29" width="11.87" height="11.87" rx="1.28"/><path class="b" d="M78.71,49.39H76.49l0-2.3A7.18,7.18,0,0,0,69.32,40h-.24V48.5a3.76,3.76,0,0,1-3.75,3.75H4.81v6.67A25.77,25.77,0,0,0,30.55,84.66h9.32a27.16,27.16,0,0,0,24.57-15c.61-1.2,1.75-3.43,2.27-4.68,3.28-8,4.54-8.54,10-8.58l8.44,0v-.24C85.19,52.11,82.59,49.39,78.71,49.39ZM26.92,67.72a2.46,2.46,0,0,1,4.92,0,2.46,2.46,0,0,1-4.92,0Z"/><rect class="a" x="22.02" y="37" width="11.87" height="11.87" rx="1.28"/><rect class="a" x="6.31" y="37" width="11.87" height="11.87" rx="1.28"/><rect class="a" x="53.44" y="37" width="11.87" height="11.87" rx="1.28"/><rect class="a" x="37.73" y="21.29" width="11.87" height="11.87" rx="1.28"/><g class="c"><rect class="a" x="37.49" y="36.76" width="12.35" height="12.35" rx="1.52"/></g><g class="c"><rect class="a" x="21.78" y="21.05" width="12.35" height="12.35" rx="1.52"/></g><g class="c"><rect class="a" x="37.49" y="5.34" width="12.35" height="12.35" rx="1.52"/></g></svg>