<svg xmlns="http://www.w3.org/2000/svg" xmlns:xlink="http://www.w3.org/1999/xlink" viewBox="0 0 70.11 100"><defs><style>.a{fill:none;}.b{clip-path:url(#a);}.c{fill:#051d30;}.d{fill:#e6e6e6;}</style><clipPath id="a"><path class="a" d="M-2663.95,323.65c-6.12,0-11.68-5-11.68-11.13s5-11.12,11.68-11.12,11.68,5,11.68,11.12-5.56,11.13-11.68,11.13ZM-2520.42,263c-1.12-8.9-6.68-16.13-13.91-21.69l-2.78-2.23-2.23,2.78c-4.45,5-6.12,13.91-5.56,20.59a30,30,0,0,0,5,13.9c-2.23,1.12-5,2.23-7.24,3.34a46.79,46.79,0,0,1-15,2.23h-144.08l-.56,3.33a62.62,62.62,0,0,0,5,31.71l2.23,3.9v.55c13.35,22.26,37.27,32.27,63.42,32.27,50.06,0,91.23-21.7,110.7-68.43,12.8.56,25.59-2.78,31.71-15l1.67-2.78-2.78-1.67c-7.23-4.45-17.25-5-25.59-2.78Zm-71.77-8.9h-21.69v21.7h21.69Zm0-27.26h-21.69v21.7h21.69Zm0-27.81h-21.69v21.69h21.69Zm26.71,55.07h-21.7v21.7h21.7Zm-80.67,0h-21.69v21.7h21.69v-21.7Zm27.26,0h-21.7v21.7h21.7Zm-54,0h-21.7v21.7h21.7v-21.7Zm54-27.26h-21.7v21.7h21.7Zm-27.26,0h-21.69v21.7h21.69v-21.7Z"/></clipPath></defs><title>icon-elixir</title><g class="b"><path class="c" d="M-2983.83,73.31H4108V915.56H-2983.83Z"/></g><path class="d" d="M54.34,40.86l-.71-.59c-3.17-2.67-8-6.7-11.49-11.16a1.1,1.1,0,1,0-1.73,1.36A82.63,82.63,0,0,0,52.22,42l.71.59a28.83,28.83,0,0,1,8,10.21,23.65,23.65,0,0,1-5.06,6.5,1.11,1.11,0,0,0,0,1.56,1.14,1.14,0,0,0,.8.34,1.09,1.09,0,0,0,.76-.3,27.74,27.74,0,0,0,4.58-5.45,28.07,28.07,0,0,1-3.54,24.11h0a29.27,29.27,0,0,1-5.4-.6c2.4-5.92,3.13-14.07-4.41-24.53C38.05,39.83,34.42,29.21,38.82,26A1.1,1.1,0,0,0,39,24.42a1.09,1.09,0,0,0-1.53-.23C29.88,29.84,40,46.33,46.75,55.65c7,9.77,6.4,17.13,4,22.73A37.48,37.48,0,0,1,47,77.09a42.32,42.32,0,0,1-10.45-6.18,40.44,40.44,0,0,0,10.7-3.21,1.1,1.1,0,0,0-.92-2,38.43,38.43,0,0,1-12,3.29c-9-8.13-16.43-21.18-17.59-39.64a2,2,0,0,0-.06-.23c6.31-10.71,13.81-18.25,16-19.35l.48-.25.07,0q0,.76-.12,2.28a20.85,20.85,0,0,0,1.39,9,1.09,1.09,0,1,0,2-.77,18.87,18.87,0,0,1-1.25-8.1c.23-2.93.23-4.1-.67-4.7s-1.61-.11-2.47.33l-.51.26C26.52,10.34,6.8,33,5,56.49a1.09,1.09,0,0,0,1,1.18h.08a1.11,1.11,0,0,0,1.1-1c.68-8.65,3.75-17,7.56-24.17C16.4,49,23.11,61.16,31.29,69.21c-10.19.35-19-1.95-24.8-6.46a1.1,1.1,0,1,0-1.36,1.73c5.81,4.52,14.32,7,24.15,7q1.06,0,2.13,0c.71,0,1.41-.07,2.11-.13a45,45,0,0,0,12.62,7.85c1.24.5,2.47.91,3.69,1.27-.27.51-.55,1-.84,1.5-3.8,6.48-11,9.64-20.38,8.92A27.73,27.73,0,0,1,10.87,76.89a.25.25,0,0,0,0-.07l0-.09a27.19,27.19,0,0,1-2.06-5.17,1.1,1.1,0,0,0-2.12.61A29.8,29.8,0,0,0,8.86,77.8a.73.73,0,0,0,.05.09A30,30,0,0,0,28.19,93l.08,0h0a29.62,29.62,0,0,0,7.13.88,30,30,0,0,0,30-30C65.4,54.66,61.78,47.13,54.34,40.86ZM42.41,90.79A19.41,19.41,0,0,0,50.89,83c.38-.65.76-1.34,1.12-2.06a32.09,32.09,0,0,0,4.76.68A27.82,27.82,0,0,1,42.41,90.79Z"/></svg>