<svg xmlns="http://www.w3.org/2000/svg" viewBox="0 0 90 90"><defs><style>.a{fill:#fff;}.b{opacity:0.5;}</style></defs><title>icon-elixir-fill</title><path class="a" d="M54.12,33.88c1.48,3.07,2.75,5.72,3.56,7.9a43.07,43.07,0,0,1,2.48,10.3.62.62,0,0,0,1,.43,21.5,21.5,0,0,0,5.93-7.24,1.12,1.12,0,0,0,0-1,26.49,26.49,0,0,0-6.22-7.38c-2.09-1.77-5-4.16-7.85-7.05a.37.37,0,0,0-.6.42Z"/><g class="b"><path class="a" d="M52.42,68.61a38.94,38.94,0,0,1-8.54-5.44,1.58,1.58,0,0,0-1.08-.37l-.94,0-1.88,0c-7.54,0-14.12-1.64-19.1-4.78l-.44-.29a31.12,31.12,0,0,0,1.11,4.87,24.51,24.51,0,0,0,1.83,4.6.25.25,0,0,0,0,.07.05.05,0,0,0,0,0A24.82,24.82,0,0,0,36.29,78.84a11.17,11.17,0,0,0,2.39.63c3.88,0,6.83-1.72,10.09-4.1A19.53,19.53,0,0,0,53,70.85,1.5,1.5,0,0,0,52.42,68.61Z"/></g><path class="a" d="M68.12,49.25a28.55,28.55,0,0,1-7.27,7.33,1.17,1.17,0,0,0-.5.91,30,30,0,0,1-1.67,8.86,1.16,1.16,0,0,0,.86,1.58,23.28,23.28,0,0,0,6.24.66,1.17,1.17,0,0,0,1-.6,24.51,24.51,0,0,0,3.18-12.13,24.81,24.81,0,0,0-.81-6.42A.56.56,0,0,0,68.12,49.25Z"/><path class="a" d="M46.09,59.35a34.79,34.79,0,0,0,9.37-3.17A3.28,3.28,0,0,0,57.24,53a40.07,40.07,0,0,0-2.37-10.13c-.77-2-2-4.64-3.45-7.64-3.66-7.63-8.25-17.2-8-24.7a1,1,0,0,0-1.57-.75,56.82,56.82,0,0,0-11.6,12.94,3.35,3.35,0,0,0-.54,1.92c.56,14.88,5.94,26.32,13.4,33.83A3.33,3.33,0,0,0,46.09,59.35Z"/><path class="a" d="M56.53,59.15A35.3,35.3,0,0,1,48.48,62a.45.45,0,0,0-.17.81,34.18,34.18,0,0,0,6.62,3.65.46.46,0,0,0,.6-.25,25.89,25.89,0,0,0,1.65-6.59A.45.45,0,0,0,56.53,59.15Z"/><g class="b"><path class="a" d="M57.75,70.57a1.18,1.18,0,0,0-1.32.5c-1.57,2.57-3,5.91-9.92,9.43,5.35,0,13.1-3.47,17.1-8.16a.49.49,0,0,0-.36-.8A28.41,28.41,0,0,1,57.75,70.57Z"/></g><g class="b"><path class="a" d="M22.48,55.54c4.28,2.7,9.94,4.15,16.47,4.29a.6.6,0,0,0,.45-1c-6.32-7.08-11-16.93-12.33-29.28a.38.38,0,0,0-.72-.15C22.72,36.45,20,44.64,20.06,53a1.64,1.64,0,0,0,.6,1.27A15.72,15.72,0,0,0,22.48,55.54Z"/></g></svg>