<svg xmlns="http://www.w3.org/2000/svg" xmlns:xlink="http://www.w3.org/1999/xlink" viewBox="0 0 100 100"><defs><style>.a{fill:none;}.b{clip-path:url(#a);}.c{fill:#051d30;}.d{fill:#e6e6e6;}</style><clipPath id="a"><path class="a" d="M-1901.46,323.65c-6.12,0-11.69-5-11.69-11.13s5-11.12,11.69-11.12,11.68,5,11.68,11.12-5.56,11.13-11.68,11.13ZM-1757.94,263c-1.11-8.9-6.67-16.13-13.9-21.69l-2.79-2.23-2.22,2.78c-4.45,5-6.12,13.91-5.56,20.59a29.86,29.86,0,0,0,5,13.9c-2.22,1.12-5,2.23-7.23,3.34a46.83,46.83,0,0,1-15,2.23h-144.08l-.56,3.33a62.62,62.62,0,0,0,5,31.71l2.22,3.9v.55c13.35,22.26,37.28,32.27,63.42,32.27,50.07,0,91.24-21.7,110.71-68.43,12.79.56,25.59-2.78,31.71-15l1.67-2.78-2.79-1.67c-7.23-4.45-17.24-5-25.59-2.78Zm-71.76-8.9h-21.7v21.7h21.7Zm0-27.26h-21.7v21.7h21.7Zm0-27.81h-21.7v21.69h21.7Zm26.7,55.07h-21.69v21.7H-1803Zm-80.66,0h-21.7v21.7h21.7v-21.7Zm27.26,0h-21.7v21.7h21.7Zm-54,0h-21.7v21.7h21.7v-21.7Zm54-27.26h-21.7v21.7h21.7Zm-27.26,0h-21.7v21.7h21.7v-21.7Z"/></clipPath></defs><title>icon-node</title><g class="b"><path class="c" d="M-2221.34,73.31H4870.49V915.56H-2221.34Z"/></g><path class="d" d="M60.15,64.51c-8.38,0-11.72-1.88-12.78-7.18l0-.1H44.53v.13c.44,6.32,5.66,9.53,15.53,9.53,5.43,0,14.56-1.25,14.65-9.6,0-5.32-2.86-7.15-13.32-8.51-9-1.17-12.71-1.81-12.71-6.12s3.42-6.31,10.15-6.31c6.14,0,10.24,1.11,11.74,6.62l0,.1h2.73l0-.15C72.42,36.65,68.09,34,58.84,34c-4,0-13.18.86-13.18,8.84,0,5.21,3.27,7.3,13,8.28,10,1,13.08,2.5,13.08,6.46C71.69,64.51,63.31,64.51,60.15,64.51Z"/><path class="d" d="M85.24,26.71,52.58,7.79a5.55,5.55,0,0,0-5.18,0L14.76,26.71a5.17,5.17,0,0,0-2.58,4.48V68.93a5.2,5.2,0,0,0,2.58,4.49l8.54,4.89c3.78,1.84,4.95,1.84,6.72,1.84,6.57,0,8-4.63,8-8.51V35.12H35.26V71.64a5.94,5.94,0,0,1-2.8,5c-1.21.74-3.8,1.69-7.55-.22l-9-5.18a2.74,2.74,0,0,1-1.38-2.41V31.11a2.74,2.74,0,0,1,1.39-2.41L48.54,9.91a2.75,2.75,0,0,1,2.63-.07L83.9,28.7a2.67,2.67,0,0,1,1.38,2.41V68.85a2.65,2.65,0,0,1-1.38,2.41L51.3,90.14a2.77,2.77,0,0,1-2.64.06l-8.07-4.82-.07,0a23.2,23.2,0,0,1-2.19,1.12l-.22.1,9.3,5.52a5.36,5.36,0,0,0,2.59.68,6.67,6.67,0,0,0,2.66-.55L85.24,73.42a5.19,5.19,0,0,0,2.58-4.49V31.19A5.17,5.17,0,0,0,85.24,26.71Z"/></svg>