<svg xmlns="http://www.w3.org/2000/svg" xmlns:xlink="http://www.w3.org/1999/xlink" viewBox="0 0 100 100"><defs><style>.a{fill:none;}.b{clip-path:url(#a);}.c{fill:#051d30;}.d{fill:#e6e6e6;}</style><clipPath id="a"><path class="a" d="M-1520.22,323.65c-6.12,0-11.68-5-11.68-11.13s5-11.12,11.68-11.12,11.68,5,11.68,11.12-5.56,11.13-11.68,11.13ZM-1376.69,263c-1.11-8.9-6.68-16.13-13.91-21.69l-2.78-2.23-2.23,2.78c-4.45,5-6.12,13.91-5.56,20.59a30,30,0,0,0,5,13.9c-2.23,1.12-5,2.23-7.24,3.34a46.79,46.79,0,0,1-15,2.23H-1562.5l-.56,3.33a62.62,62.62,0,0,0,5,31.71l2.23,3.9v.55c13.35,22.26,37.27,32.27,63.42,32.27,50.06,0,91.23-21.7,110.7-68.43,12.8.56,25.59-2.78,31.71-15l1.67-2.78-2.78-1.67c-7.23-4.45-17.25-5-25.59-2.78Zm-71.77-8.9h-21.69v21.7h21.69Zm0-27.26h-21.69v21.7h21.69Zm0-27.81h-21.69v21.69h21.69Zm26.71,55.07h-21.7v21.7h21.7Zm-80.67,0h-21.69v21.7h21.69v-21.7Zm27.26,0h-21.7v21.7h21.7Zm-54,0h-21.7v21.7h21.7v-21.7Zm54-27.26h-21.7v21.7h21.7Zm-27.26,0h-21.69v21.7h21.69v-21.7Z"/></clipPath></defs><title>icon-rust</title><g class="b"><path class="c" d="M-1840.1,73.31H5251.74V915.56H-1840.1Z"/></g><path class="d" d="M29.62,28.22h31.7a14.36,14.36,0,0,1,6.81,2.26c1.84,1.22,4.92,3.9,4.92,8.2,0,3.13-2.21,6.12-6.57,8.89a1.07,1.07,0,0,0-.09,1.75l.19.16c2.63,2.07,4.07,3.21,5,8.69.39,1.7,2.65,2.72,4.61,2.72a5.74,5.74,0,0,0,.6,0c3.33-.37,5-2.36,5-5.94a1.08,1.08,0,0,0-2.16,0c0,3-1.48,3.62-3.09,3.79a3.26,3.26,0,0,1-2.86-1c-1-5.58-2.71-7.43-4.86-9.19,4.2-3,6.33-6.29,6.33-9.87,0-5.31-3.69-8.54-5.89-10a16.51,16.51,0,0,0-8-2.61H29.62a1.08,1.08,0,1,0,0,2.15Z"/><path class="d" d="M73.3,69.55H63.65c-1.62,0-3.49-2.69-4-4.16-.32-.87-.8-3.26-1.12-4.84-.21-1-.39-1.92-.52-2.41-1-4.11-4-5.58-6.52-5.58H42.61a1.08,1.08,0,0,0-1.08,1.08V60A1.08,1.08,0,0,0,42.6,61h7.7v8.51H27.55a1.08,1.08,0,0,0,0,2.15H50.84a1.42,1.42,0,0,0,1.61-1.42v-10a1.43,1.43,0,0,0-1.61-1.43H43.68V54.72h7.84c.81,0,3.52.28,4.43,3.94.12.46.29,1.28.48,2.23l0,.09a48.72,48.72,0,0,0,1.19,5.12c.62,1.89,3.1,5.6,6,5.6H73.3a1.08,1.08,0,1,0,0-2.15Z"/><path class="d" d="M23.2,38.66H26v21a1.08,1.08,0,0,0,2.15,0v-22a1.08,1.08,0,0,0-1.07-1.08H23.2a1.08,1.08,0,0,0,0,2.16Z"/><path class="d" d="M42.6,45.39H53.39c3.08,0,6.17-1.28,6.17-4.15,0-3.67-4.49-4.5-5.32-4.5H42.61a1.07,1.07,0,0,0-1.08,1.07v6.5a1,1,0,0,0,.32.76A1.07,1.07,0,0,0,42.6,45.39Zm1.08-2.16V38.89H54.24c.37,0,3.17.54,3.17,2.35,0,1.58-2.63,2-4,2Z"/><path class="d" d="M93.29,55.12h0c1.87-1.5,3.8-3,3.8-5.12s-1.93-3.62-3.8-5.12c-1.27-1-2.7-2.15-2.88-3.07s.66-2.56,1.48-4.09c1.12-2.07,2.28-4.21,1.5-6.06S90.28,29.21,88,28.61c-1.55-.42-3.3-.89-3.81-1.64s-.29-2.58-.09-4.18c.28-2.31.58-4.7-.82-6.09s-3.78-1.1-6.09-.82c-1.6.2-3.42.43-4.18-.09S71.81,13.53,71.39,12c-.6-2.26-1.22-4.59-3.06-5.37s-4,.38-6.06,1.5c-1.53.83-3.1,1.68-4.08,1.48S56.13,8,55.12,6.7c-1.5-1.87-3-3.8-5.12-3.8s-3.62,1.93-5.12,3.8c-1,1.27-2.15,2.7-3.07,2.88s-2.55-.65-4.09-1.48C35.65,7,33.51,5.82,31.66,6.6S29.21,9.72,28.61,12c-.42,1.55-.89,3.3-1.64,3.81s-2.57.29-4.18.09c-2.31-.28-4.7-.58-6.09.82s-1.1,3.78-.82,6.09c.2,1.6.43,3.42-.09,4.18S13.53,28.19,12,28.61c-2.26.6-4.6,1.22-5.38,3.05s.38,4,1.5,6.06c.82,1.53,1.68,3.11,1.48,4.09S8,43.87,6.7,44.88c-1.87,1.5-3.8,3-3.8,5.12s1.93,3.62,3.81,5.12c1.26,1,2.69,2.15,2.87,3.07s-.66,2.56-1.49,4.1c-1.11,2.06-2.27,4.2-1.49,6S9.71,70.79,12,71.39c1.55.42,3.3.89,3.81,1.64s.29,2.58.09,4.18c-.28,2.31-.58,4.7.82,6.09s3.78,1.1,6.09.82c1.6-.2,3.42-.43,4.18.09s1.22,2.26,1.64,3.81c.6,2.26,1.22,4.6,3.05,5.38s4-.38,6.06-1.5c1.53-.82,3.11-1.68,4.09-1.48S43.87,92,44.88,93.3c1.5,1.87,3,3.8,5.12,3.8s3.62-1.93,5.12-3.81c1-1.26,2.15-2.69,3.07-2.87s2.56.66,4.09,1.48c2.07,1.12,4.21,2.27,6,1.5s2.46-3.11,3.06-5.38c.42-1.55.88-3.3,1.64-3.81s2.58-.29,4.18-.09c2.31.28,4.7.58,6.09-.82s1.1-3.78.82-6.09c-.2-1.6-.43-3.42.09-4.18s2.26-1.22,3.82-1.64c2.26-.6,4.59-1.22,5.37-3.06s-.38-4-1.5-6c-.82-1.53-1.68-3.11-1.48-4.09S92,56.13,93.29,55.12ZM10,63.31c1-1.87,2.06-3.8,1.7-5.55s-2-3-3.64-4.33c-1.4-1.12-3-2.4-3-3.43s1.59-2.31,3-3.43c1.63-1.3,3.3-2.65,3.64-4.33S11,38.56,10,36.69c-.83-1.55-1.78-3.3-1.4-4.18s2.26-1.37,3.95-1.82c2-.54,4.08-1.09,5-2.51s.7-3.58.44-5.66c-.21-1.71-.45-3.65.2-4.3s2.59-.41,4.32-.19c2.07.25,4.21.51,5.64-.45s2-3,2.51-5c.45-1.68.95-3.58,1.82-3.94s2.63.57,4.18,1.4c1.87,1,3.8,2,5.55,1.7s3-2,4.33-3.64c1.12-1.4,2.4-3,3.43-3s2.31,1.59,3.43,3c1.3,1.63,2.65,3.3,4.33,3.64S61.44,11,63.32,10c1.54-.83,3.29-1.78,4.17-1.4s1.37,2.26,1.82,3.94c.54,2,1.09,4.09,2.51,5s3.58.7,5.66.44c1.71-.21,3.65-.45,4.3.2s.41,2.59.2,4.31c-.26,2.07-.53,4.21.44,5.65s3,2,5,2.51c1.68.45,3.58.95,3.94,1.82s-.57,2.64-1.4,4.18c-1,1.87-2.06,3.8-1.7,5.55s2,3,3.64,4.33c1.41,1.13,3,2.4,3,3.43s-1.59,2.31-3,3.43c-1.63,1.3-3.3,2.65-3.64,4.33S89,61.44,90,63.31c.83,1.54,1.78,3.3,1.4,4.18s-2.26,1.37-3.94,1.82c-2,.54-4.09,1.09-5,2.51s-.7,3.58-.44,5.66c.21,1.71.45,3.65-.2,4.3s-2.59.41-4.3.2c-2.08-.26-4.22-.53-5.66.44s-2,3-2.51,5c-.45,1.68-1,3.58-1.82,3.94s-2.63-.57-4.18-1.4c-1.87-1-3.79-2.06-5.55-1.7s-3,2-4.33,3.64c-1.12,1.4-2.4,3-3.43,3s-2.31-1.59-3.43-3c-1.3-1.63-2.65-3.3-4.33-3.64a3.45,3.45,0,0,0-.72-.07c-1.55,0-3.22.9-4.84,1.77s-3.29,1.78-4.17,1.4-1.37-2.26-1.82-4c-.54-2-1.09-4.08-2.51-5s-3.58-.7-5.66-.44c-1.71.21-3.65.45-4.3-.2s-.41-2.59-.2-4.3c.26-2.08.53-4.22-.44-5.66s-3-2-5-2.51c-1.68-.45-3.58-1-3.94-1.82S9.16,64.86,10,63.31Z"/></svg>