<svg xmlns="http://www.w3.org/2000/svg" viewBox="0 0 24 24"><defs><style>.a{fill:#98a2b8;}</style></defs><title>icon-sign-in</title><path class="a" d="M17.53,2.67H13.8a.94.94,0,0,0-.94.93h0a.94.94,0,0,0,.94.94h3.73a.92.92,0,0,1,.93.93h0V18.53a.92.92,0,0,1-.93.93H13.8a.94.94,0,0,0-.94.94h0a.94.94,0,0,0,.94.93h3.73a2.8,2.8,0,0,0,2.8-2.8V5.47a2.8,2.8,0,0,0-2.8-2.8Z"/><path class="a" d="M14.66,12.36a.94.94,0,0,0-.2-1L9.79,6.67A.93.93,0,1,0,8.47,8l3.08,3.07h-9a.94.94,0,0,0-.93.94h0a.93.93,0,0,0,.93.93h9L8.47,16a.94.94,0,0,0,0,1.32.93.93,0,0,0,.66.27.9.9,0,0,0,.66-.27l4.67-4.67A1,1,0,0,0,14.66,12.36Z"/></svg>
