<svg xmlns="http://www.w3.org/2000/svg" viewBox="0 0 24 24"><defs><style>.a{fill:#98a2b8;}</style></defs><title>icon-status</title><path class="a" d="M23.16,11.57H18.81a.81.81,0,0,0-.57.23l-1.12,1L14.63,4.37A.84.84,0,0,0,13,4.44L10.74,15.78,8.66,8.32a.83.83,0,0,0-.75-.61.84.84,0,0,0-.83.51L5.65,11.57H.84a.84.84,0,0,0,0,1.68H6.21A.83.83,0,0,0,7,12.74l.71-1.66,2.39,8.54a.84.84,0,0,0,.8.62h0a.86.86,0,0,0,.8-.68L14,8.12l1.92,6.51a.83.83,0,0,0,.58.57.85.85,0,0,0,.8-.2l1.86-1.75h4a.84.84,0,0,0,0-1.68Z"/></svg>
